{
	"asset":{
		"generator":"Khronos glTF Blender I/O v4.0.43",
		"version":"2.0"
	},
	"extensionsUsed":[
		"KHR_lights_punctual"
	],
	"extensionsRequired":[
		"KHR_lights_punctual"
	],
	"extensions":{
		"KHR_lights_punctual":{
			"lights":[
				{
					"color":[
						1,
						0.8328787684440613,
						0.48654258251190186
					],
					"intensity":17075,
					"type":"directional",
					"name":"Light"
				}
			]
		}
	},
	"scene":0,
	"scenes":[
		{
			"name":"temp_scene",
			"nodes":[
				0,
				1,
				2,
				3,
				4,
				5,
				6,
				7,
				8,
				9,
				10,
				11,
				12,
				13,
				14,
				15,
				16,
				17
			]
		}
	],
	"nodes":[
		{
			"camera":0,
			"extras":{
				"CameraTrackingOffset":[
					26.0,
					48.0,
					-26.0
				],
				"Saveable":""
			},
			"name":"Camera",
			"rotation":[
				-0.38303452730178833,
				-0.4371166229248047,
				-0.21319502592086792,
				0.7853416800498962
			],
			"translation":[
				-37.79844665527344,
				57.50745391845703,
				26.346900939941406
			]
		},
		{
			"extras":{
				"BlueprintName":"\"Container\"",
				"SpawnHere":"",
				"Pickable":"",
				"Saveable":""
			},
			"name":"Container.001____bak",
			"translation":[
				-14.346199035644531,
				0.6536036729812622,
				6.444082260131836
			]
		},
		{
			"extras":{
				"Collider":"Mesh"
			},
			"mesh":0,
			"name":"Ground",
			"scale":[
				0.9353691935539246,
				0.4676845967769623,
				0.9353691935539246
			]
		},
		{
			"extensions":{
				"KHR_lights_punctual":{
					"light":0
				}
			},
			"name":"Light",
			"rotation":[
				-0.44001275300979614,
				0.6989604234695435,
				0.4932750165462494,
				0.27298879623413086
			],
			"translation":[
				4.076245307922363,
				18.686649322509766,
				-1.0054539442062378
			]
		},
		{
			"extras":{
				"BlueprintName":"\"Pillar\"",
				"SpawnHere":""
			},
			"name":"Pillar.001____bak",
			"rotation":[
				-0.16778354346752167,
				-0.15213392674922943,
				0.12012217193841934,
				0.9665788412094116
			],
			"translation":[
				23.445295333862305,
				-1.4132944345474243,
				-1.1635456085205078
			]
		},
		{
			"extras":{
				"BlueprintName":"\"Pillar\"",
				"SpawnHere":""
			},
			"name":"Pillar.002____bak",
			"translation":[
				12.394309997558594,
				0,
				11.361231803894043
			]
		},
		{
			"extras":{
				"BlueprintName":"\"Health_Pickup\"",
				"SpawnHere":""
			},
			"name":"Health_Pickup.001____bak",
			"translation":[
				4.697511196136475,
				1.5506305694580078,
				8.962273597717285
			]
		},
		{
			"extras":{
				"BlueprintName":"\"MagicTeapot\"",
				"SpawnHere":""
			},
			"name":"MagicTeapot.001____bak",
			"translation":[
				3.6351966857910156,
				3.872074604034424,
				-7.313272953033447
			]
		},
		{
			"mesh":1,
			"name":"Cube",
			"scale":[
				3.8055825233459473,
				3.8055825233459473,
				3.8055825233459473
			],
			"translation":[
				-14.974735260009766,
				13.351404190063477,
				-17.45383644104004
			]
		},
		{
			"extras":{
				"BlueprintName":"\"Health_Pickup\"",
				"SpawnHere":""
			},
			"name":"Health_Pickup.002____bak",
			"translation":[
				-1.2373764514923096,
				1.9034390449523926,
				-14.737571716308594
			]
		},
		{
			"extras":{
				"BlueprintName":"\"Container\"",
				"SpawnHere":"",
				"Pickable":"",
				"Saveable":""
			},
			"name":"Container.002____bak",
			"translation":[
				-21.397857666015625,
				0.3833189010620117,
				-0.32418346405029297
			]
		},
		{
			"extras":{
				"BlueprintName":"\"Pillar\"",
				"SpawnHere":""
			},
			"name":"Pillar.003____bak",
			"translation":[
				10.687894821166992,
				-1.161834716796875,
				-21.835617065429688
			]
		},
		{
			"extras":{
				"BlueprintName":"\"Pillar\"",
				"SpawnHere":""
			},
			"name":"Pillar.004____bak",
			"rotation":[
				0.0626998022198677,
				0.056851621717214584,
				-0.04488899186253548,
				0.9954002499580383
			],
			"translation":[
				-6.337947845458984,
				-1.161834716796875,
				-19.345294952392578
			]
		},
		{
			"extras":{
				"BlueprintName":"\"Pillar\"",
				"SpawnHere":""
			},
			"name":"Pillar.005____bak",
			"rotation":[
				-0.10973918437957764,
				-0.13786573708057404,
				0.13505353033542633,
				0.9750440716743469
			],
			"scale":[
				0.5077471733093262,
				0.5077471733093262,
				0.507747232913971
			],
			"translation":[
				-8.707667350769043,
				1.5589470863342285,
				-10.38162899017334
			]
		},
		{
			"name":"Empty",
			"scale":[
				2.3324527740478516,
				2.3324527740478516,
				2.3324527740478516
			],
			"translation":[
				6.736208915710449,
				10.129766464233398,
				-25.395078659057617
			]
		},
		{
			"extras":{
				"BlueprintName":"\"Pillar\"",
				"SpawnHere":""
			},
			"name":"Pillar.056____bak",
			"rotation":[
				0.11627969890832901,
				0.14539803564548492,
				-0.14209510385990143,
				0.9721870422363281
			],
			"scale":[
				1.9112937450408936,
				1.9112941026687622,
				1.911293864250183
			],
			"translation":[
				-8.150419235229492,
				1.558946132659912,
				13.774781227111816
			]
		},
		{
			"extras":{
				"BlueprintName":"\"Player 2\"",
				"SpawnHere":""
			},
			"name":"Player 2____bak",
			"translation":[
				-0.012437301687896252,
				0.9676206111907959,
				-0.0178943183273077
			]
		},
		{
			"extras":{
				"BlueprintName":"\"Enemy\"",
				"SpawnHere":""
			},
			"name":"Enemy____bak",
			"rotation":[
				0,
				0.624214768409729,
				0,
				0.7812528014183044
			],
			"translation":[
				8.630025863647461,
				1.4888672828674316,
				3.653643846511841
			]
		}
	],
	"cameras":[
		{
			"name":"Camera",
			"perspective":{
				"aspectRatio":1.7777777777777777,
				"yfov":0.39959652046304894,
				"zfar":100,
				"znear":0.10000000149011612
			},
			"type":"perspective"
		}
	],
	"materials":[
		{
			"doubleSided":true,
			"name":"Material.005",
			"pbrMetallicRoughness":{
				"baseColorFactor":[
					0.22025755047798157,
					0.22025755047798157,
					0.22025755047798157,
					1
				],
				"metallicFactor":0,
				"roughnessFactor":0.5
			}
		}
	],
	"meshes":[
		{
			"name":"Plane",
			"primitives":[
				{
					"attributes":{
						"POSITION":0,
						"NORMAL":1,
						"TEXCOORD_0":2
					},
					"indices":3,
					"material":0
				}
			]
		},
		{
			"name":"Cube.002",
			"primitives":[
				{
					"attributes":{
						"POSITION":4,
						"NORMAL":5,
						"TEXCOORD_0":6
					},
					"indices":7
				}
			]
		}
	],
	"accessors":[
		{
			"bufferView":0,
			"componentType":5126,
			"count":4,
			"max":[
				50,
				0,
				50
			],
			"min":[
				-50,
				0,
				-50
			],
			"type":"VEC3"
		},
		{
			"bufferView":1,
			"componentType":5126,
			"count":4,
			"type":"VEC3"
		},
		{
			"bufferView":2,
			"componentType":5126,
			"count":4,
			"type":"VEC2"
		},
		{
			"bufferView":3,
			"componentType":5123,
			"count":6,
			"type":"SCALAR"
		},
		{
			"bufferView":4,
			"componentType":5126,
			"count":24,
			"max":[
				1,
				1,
				1
			],
			"min":[
				-1,
				-1,
				-1
			],
			"type":"VEC3"
		},
		{
			"bufferView":5,
			"componentType":5126,
			"count":24,
			"type":"VEC3"
		},
		{
			"bufferView":6,
			"componentType":5126,
			"count":24,
			"type":"VEC2"
		},
		{
			"bufferView":7,
			"componentType":5123,
			"count":36,
			"type":"SCALAR"
		}
	],
	"bufferViews":[
		{
			"buffer":0,
			"byteLength":48,
			"byteOffset":0,
			"target":34962
		},
		{
			"buffer":0,
			"byteLength":48,
			"byteOffset":48,
			"target":34962
		},
		{
			"buffer":0,
			"byteLength":32,
			"byteOffset":96,
			"target":34962
		},
		{
			"buffer":0,
			"byteLength":12,
			"byteOffset":128,
			"target":34963
		},
		{
			"buffer":0,
			"byteLength":288,
			"byteOffset":140,
			"target":34962
		},
		{
			"buffer":0,
			"byteLength":288,
			"byteOffset":428,
			"target":34962
		},
		{
			"buffer":0,
			"byteLength":192,
			"byteOffset":716,
			"target":34962
		},
		{
			"buffer":0,
			"byteLength":72,
			"byteOffset":908,
			"target":34963
		}
	],
	"buffers":[
		{
			"byteLength":980,
			"uri":"World.bin"
		}
	]
}
