{
	"asset":{
		"generator":"Khronos glTF Blender I/O v4.0.43",
		"version":"2.0"
	},
	"scene":0,
	"scenes":[
		{
			"extras":{
				"changedScene":"Library",
				"skinify":{
					"connect_mesh":0,
					"connect_parents":0,
					"generate_all":0,
					"thickness":0.800000011920929,
					"finger_thickness":0.25,
					"apply_mod":1,
					"parent_armature":1,
					"sub_level":1
				},
				"foo":"blabla",
				"changedObjects":[],
				"exportedCollections":[
					{
						"name":"Pillar"
					},
					{
						"name":"Container"
					},
					{
						"name":"Player"
					},
					{
						"name":"Health_Pickup"
					},
					{
						"name":"MagicTeapot"
					},
					{
						"name":"Unused_in_level_test"
					}
				],
				"auto_gltfExportSettings":{
					"export_format":"GLTF_SEPARATE",
					"export_output_folder":"models"
				}
			},
			"name":"Library",
			"nodes":[
				0,
				9,
				10
			]
		}
	],
	"nodes":[
		{
			"extras":{
				"SoundMaterial":"Metal",
				"Saveable":"",
				"Enemy":""
			},
			"name":"enemy_components"
		},
		{
			"mesh":0,
			"name":"Icosphere"
		},
		{
			"extras":{
				"SoundMaterial":"Squishy",
				"Marker":""
			},
			"name":"hand_components"
		},
		{
			"children":[
				1,
				2
			],
			"name":"Hand",
			"rotation":[
				0,
				0,
				-1,
				0
			],
			"scale":[
				-1,
				-1,
				-1
			],
			"translation":[
				0,
				0,
				-0.6667258143424988
			]
		},
		{
			"extras":{
				"NestingTest":""
			},
			"name":"Humanoid_cactus_components"
		},
		{
			"mesh":0,
			"name":"Icosphere"
		},
		{
			"extras":{
				"SoundMaterial":"Squishy",
				"Marker":""
			},
			"name":"hand_components"
		},
		{
			"children":[
				5,
				6
			],
			"name":"Hand.001",
			"translation":[
				0,
				0,
				0.6476690173149109
			]
		},
		{
			"mesh":1,
			"name":"cactus_geometry.002",
			"rotation":[
				0.7071068286895752,
				0,
				0,
				0.7071067690849304
			],
			"scale":[
				0.4324781596660614,
				0.4324781596660614,
				0.4324781596660614
			],
			"translation":[
				0,
				0.2446833699941635,
				0
			]
		},
		{
			"children":[
				3,
				4,
				7,
				8
			],
			"name":"Humanoid_cactus.001"
		},
		{
			"mesh":2,
			"name":"Cone"
		}
	],
	"materials":[
		{
			"doubleSided":true,
			"name":"Env_blue.001",
			"pbrMetallicRoughness":{
				"baseColorFactor":[
					0.001640412723645568,
					0.09032226353883743,
					0.8000000715255737,
					1
				],
				"metallicFactor":0,
				"roughnessFactor":0.5
			}
		}
	],
	"meshes":[
		{
			"name":"Icosphere.001",
			"primitives":[
				{
					"attributes":{
						"POSITION":0,
						"NORMAL":1,
						"TEXCOORD_0":2
					},
					"indices":3
				}
			]
		},
		{
			"extras":{
				"Roundcube":true,
				"change":false,
				"radius":0.5,
				"size":[
					0.0,
					0.0,
					3.0
				],
				"arc_div":4,
				"lin_div":0.0,
				"div_type":"CORNERS",
				"odd_axis_align":false,
				"no_limit":false
			},
			"name":"Roundcube.005",
			"primitives":[
				{
					"attributes":{
						"POSITION":4,
						"NORMAL":5
					},
					"indices":6,
					"material":0
				}
			]
		},
		{
			"name":"Cone",
			"primitives":[
				{
					"attributes":{
						"POSITION":7,
						"NORMAL":8,
						"TEXCOORD_0":9
					},
					"indices":10
				}
			]
		}
	],
	"accessors":[
		{
			"bufferView":0,
			"componentType":5126,
			"count":81,
			"max":[
				0.19021157920360565,
				0.20000000298023224,
				0.25086963176727295
			],
			"min":[
				-0.19021157920360565,
				-0.37308886647224426,
				-0.2788497805595398
			],
			"type":"VEC3"
		},
		{
			"bufferView":1,
			"componentType":5126,
			"count":81,
			"type":"VEC3"
		},
		{
			"bufferView":2,
			"componentType":5126,
			"count":81,
			"type":"VEC2"
		},
		{
			"bufferView":3,
			"componentType":5123,
			"count":306,
			"type":"SCALAR"
		},
		{
			"bufferView":4,
			"componentType":5126,
			"count":896,
			"max":[
				0.770358145236969,
				1.5,
				2.876844882965088
			],
			"min":[
				-0.770358145236969,
				-1.5,
				-1.7453041076660156
			],
			"type":"VEC3"
		},
		{
			"bufferView":5,
			"componentType":5126,
			"count":896,
			"type":"VEC3"
		},
		{
			"bufferView":6,
			"componentType":5123,
			"count":1344,
			"type":"SCALAR"
		},
		{
			"bufferView":7,
			"componentType":5126,
			"count":20,
			"max":[
				0.6603705286979675,
				2.11539888381958,
				0.561744749546051
			],
			"min":[
				-0.6603705286979675,
				0.7266894578933716,
				-0.6943546533584595
			],
			"type":"VEC3"
		},
		{
			"bufferView":8,
			"componentType":5126,
			"count":20,
			"type":"VEC3"
		},
		{
			"bufferView":9,
			"componentType":5126,
			"count":20,
			"type":"VEC2"
		},
		{
			"bufferView":10,
			"componentType":5123,
			"count":24,
			"type":"SCALAR"
		}
	],
	"bufferViews":[
		{
			"buffer":0,
			"byteLength":972,
			"byteOffset":0,
			"target":34962
		},
		{
			"buffer":0,
			"byteLength":972,
			"byteOffset":972,
			"target":34962
		},
		{
			"buffer":0,
			"byteLength":648,
			"byteOffset":1944,
			"target":34962
		},
		{
			"buffer":0,
			"byteLength":612,
			"byteOffset":2592,
			"target":34963
		},
		{
			"buffer":0,
			"byteLength":10752,
			"byteOffset":3204,
			"target":34962
		},
		{
			"buffer":0,
			"byteLength":10752,
			"byteOffset":13956,
			"target":34962
		},
		{
			"buffer":0,
			"byteLength":2688,
			"byteOffset":24708,
			"target":34963
		},
		{
			"buffer":0,
			"byteLength":240,
			"byteOffset":27396,
			"target":34962
		},
		{
			"buffer":0,
			"byteLength":240,
			"byteOffset":27636,
			"target":34962
		},
		{
			"buffer":0,
			"byteLength":160,
			"byteOffset":27876,
			"target":34962
		},
		{
			"buffer":0,
			"byteLength":48,
			"byteOffset":28036,
			"target":34963
		}
	],
	"buffers":[
		{
			"byteLength":28084,
			"uri":"Enemy.bin"
		}
	]
}
