{
	"asset":{
		"generator":"Khronos glTF Blender I/O v4.0.43",
		"version":"2.0"
	},
	"scene":0,
	"scenes":[
		{
			"extras":{
				"changedScene":"Library",
				"skinify":{
					"connect_mesh":0,
					"connect_parents":0,
					"generate_all":0,
					"thickness":0.800000011920929,
					"finger_thickness":0.25,
					"apply_mod":1,
					"parent_armature":1,
					"sub_level":1
				},
				"foo":"blabla",
				"changedObjects":[],
				"exportedCollections":[
					{
						"name":"Pillar"
					},
					{
						"name":"Container"
					},
					{
						"name":"Player"
					},
					{
						"name":"Health_Pickup"
					},
					{
						"name":"MagicTeapot"
					},
					{
						"name":"Unused_in_level_test"
					}
				],
				"auto_gltfExportSettings":{
					"export_format":"GLTF_SEPARATE",
					"export_output_folder":"models"
				}
			},
			"name":"Library",
			"nodes":[
				0,
				1,
				2
			]
		}
	],
	"nodes":[
		{
			"mesh":0,
			"name":"Geometry",
			"scale":[
				0.45072945952415466,
				0.45072945952415466,
				0.45072945952415466
			],
			"translation":[
				0,
				-0.5528948903083801,
				0
			]
		},
		{
			"extras":{
				"RigidBody":"Dynamic",
				"Saveable":""
			},
			"name":"teapot_components"
		},
		{
			"extras":{
				"Collider":"Mesh"
			},
			"mesh":1,
			"name":"teapot_collider",
			"translation":[
				0,
				0.37109121680259705,
				-0.48528921604156494
			]
		}
	],
	"materials":[
		{
			"alphaMode":"BLEND",
			"doubleSided":true,
			"name":"Collider_material",
			"pbrMetallicRoughness":{
				"baseColorFactor":[
					0.8000000715255737,
					0.6398285031318665,
					0.6603161692619324,
					0.1595744490623474
				],
				"metallicFactor":0,
				"roughnessFactor":0.5
			}
		}
	],
	"meshes":[
		{
			"name":"Teapot",
			"primitives":[
				{
					"attributes":{
						"POSITION":0,
						"NORMAL":1
					},
					"indices":2
				}
			]
		},
		{
			"name":"Icosphere",
			"primitives":[
				{
					"attributes":{
						"POSITION":3,
						"NORMAL":4,
						"TEXCOORD_0":5
					},
					"indices":6,
					"material":0
				}
			]
		}
	],
	"accessors":[
		{
			"bufferView":0,
			"componentType":5126,
			"count":496,
			"max":[
				3.4281253814697266,
				3.1500000953674316,
				2
			],
			"min":[
				-3,
				0,
				-2
			],
			"type":"VEC3"
		},
		{
			"bufferView":1,
			"componentType":5126,
			"count":496,
			"type":"VEC3"
		},
		{
			"bufferView":2,
			"componentType":5123,
			"count":720,
			"type":"SCALAR"
		},
		{
			"bufferView":3,
			"componentType":5126,
			"count":240,
			"max":[
				1.6461009979248047,
				1.7308106422424316,
				1.730810523033142
			],
			"min":[
				-1.6461009979248047,
				-1.7308106422424316,
				-1.730810523033142
			],
			"type":"VEC3"
		},
		{
			"bufferView":4,
			"componentType":5126,
			"count":240,
			"type":"VEC3"
		},
		{
			"bufferView":5,
			"componentType":5126,
			"count":240,
			"type":"VEC2"
		},
		{
			"bufferView":6,
			"componentType":5123,
			"count":240,
			"type":"SCALAR"
		}
	],
	"bufferViews":[
		{
			"buffer":0,
			"byteLength":5952,
			"byteOffset":0,
			"target":34962
		},
		{
			"buffer":0,
			"byteLength":5952,
			"byteOffset":5952,
			"target":34962
		},
		{
			"buffer":0,
			"byteLength":1440,
			"byteOffset":11904,
			"target":34963
		},
		{
			"buffer":0,
			"byteLength":2880,
			"byteOffset":13344,
			"target":34962
		},
		{
			"buffer":0,
			"byteLength":2880,
			"byteOffset":16224,
			"target":34962
		},
		{
			"buffer":0,
			"byteLength":1920,
			"byteOffset":19104,
			"target":34962
		},
		{
			"buffer":0,
			"byteLength":480,
			"byteOffset":21024,
			"target":34963
		}
	],
	"buffers":[
		{
			"byteLength":21504,
			"uri":"MagicTeapot.bin"
		}
	]
}
