{
	"asset":{
		"generator":"Khronos glTF Blender I/O v4.0.43",
		"version":"2.0"
	},
	"extensionsUsed":[
		"KHR_materials_emissive_strength"
	],
	"scene":0,
	"scenes":[
		{
			"extras":{
				"changedScene":"Library",
				"skinify":{
					"connect_mesh":0,
					"connect_parents":0,
					"generate_all":0,
					"thickness":0.800000011920929,
					"finger_thickness":0.25,
					"apply_mod":1,
					"parent_armature":1,
					"sub_level":1
				},
				"foo":"blabla",
				"changedObjects":[],
				"exportedCollections":[
					{
						"name":"Pillar"
					},
					{
						"name":"Container"
					},
					{
						"name":"Player"
					},
					{
						"name":"Health_Pickup"
					},
					{
						"name":"MagicTeapot"
					},
					{
						"name":"Unused_in_level_test"
					}
				],
				"auto_gltfExportSettings":{
					"export_format":"GLTF_SEPARATE",
					"export_output_folder":"models"
				}
			},
			"name":"Library",
			"nodes":[
				0,
				1
			]
		}
	],
	"nodes":[
		{
			"mesh":0,
			"name":"Unused_in_level_test_geometry"
		},
		{
			"extras":{
				"Healer":"(amount:20)",
				"Collider":"Capsule( (x:0.0, y:-1.1, z:0.0) , (x: 0.0, y:1.1, z:0.0),  0.5 )",
				"Saveable":"",
				"Pickable":"",
				"RigidBody":"Dynamic"
			},
			"name":"Unused_in_level_test_components"
		}
	],
	"materials":[
		{
			"doubleSided":true,
			"emissiveFactor":[
				0.03310476616024971,
				1,
				1
			],
			"extensions":{
				"KHR_materials_emissive_strength":{
					"emissiveStrength":157.59999084472656
				}
			},
			"extras":{
				"prop":"1.0"
			},
			"name":"Glowy",
			"pbrMetallicRoughness":{
				"baseColorFactor":[
					0.3805106282234192,
					0.8000000715255737,
					0.27123215794563293,
					1
				],
				"metallicFactor":0,
				"roughnessFactor":0.5
			}
		}
	],
	"meshes":[
		{
			"extras":{
				"Roundcube":true,
				"change":false,
				"radius":0.6000000238418579,
				"size":[
					0.0,
					0.0,
					3.0
				],
				"arc_div":2,
				"lin_div":0.0,
				"div_type":"CORNERS",
				"odd_axis_align":false,
				"no_limit":false
			},
			"name":"pancake",
			"primitives":[
				{
					"attributes":{
						"POSITION":0,
						"NORMAL":1
					},
					"indices":2,
					"material":0
				}
			]
		}
	],
	"accessors":[
		{
			"bufferView":0,
			"componentType":5126,
			"count":128,
			"max":[
				1.1644810438156128,
				0.3606753349304199,
				1.1644810438156128
			],
			"min":[
				-1.1644810438156128,
				-0.3606753349304199,
				-1.1644810438156128
			],
			"type":"VEC3"
		},
		{
			"bufferView":1,
			"componentType":5126,
			"count":128,
			"type":"VEC3"
		},
		{
			"bufferView":2,
			"componentType":5123,
			"count":192,
			"type":"SCALAR"
		}
	],
	"bufferViews":[
		{
			"buffer":0,
			"byteLength":1536,
			"byteOffset":0,
			"target":34962
		},
		{
			"buffer":0,
			"byteLength":1536,
			"byteOffset":1536,
			"target":34962
		},
		{
			"buffer":0,
			"byteLength":384,
			"byteOffset":3072,
			"target":34963
		}
	],
	"buffers":[
		{
			"byteLength":3456,
			"uri":"Unused_in_level_test.bin"
		}
	]
}
